<svg width="80" height="80" viewBox="0 0 80 80" fill="none" xmlns="http://www.w3.org/2000/svg">
<rect width="80" height="80" rx="20" fill="#E1E8EF"/>
<path d="M48.5 18H33.5C32.9696 18 32.4609 18.2107 32.0858 18.5858C31.7107 18.9609 31.5 19.4696 31.5 20V23H29.5V25H31.5V27H29.5V29H31.5V31H29.5V33H31.5V36C31.5 36.5304 31.7107 37.0391 32.0858 37.4142C32.4609 37.7893 32.9696 38 33.5 38H48.5C48.7652 38 49.0196 37.8946 49.2071 37.7071C49.3946 37.5196 49.5 37.2652 49.5 37V19C49.5 18.7348 49.3946 18.4804 49.2071 18.2929C49.0196 18.1054 48.7652 18 48.5 18ZM40.5 20.999C42.148 20.999 43.5 22.35 43.5 23.999C43.4971 24.7938 43.1801 25.5553 42.6182 26.1175C42.0562 26.6796 41.2948 26.9968 40.5 27C38.853 27 37.5 25.647 37.5 23.999C37.5 22.35 38.853 20.999 40.5 20.999ZM46.5 34H34.5V33.25C34.5 31.031 37.205 28.75 40.5 28.75C43.795 28.75 46.5 31.031 46.5 33.25V34Z" fill="#1A1003" fill-opacity="0.5"/>
<path d="M17.42 49.68C17.42 49.16 17.512 48.652 17.696 48.156C17.88 47.652 18.148 47.196 18.5 46.788C18.86 46.372 19.296 46.044 19.808 45.804C20.32 45.556 20.9 45.432 21.548 45.432C22.316 45.432 22.98 45.608 23.54 45.96C24.1 46.304 24.516 46.748 24.788 47.292L23.732 48C23.572 47.656 23.368 47.384 23.12 47.184C22.88 46.984 22.616 46.844 22.328 46.764C22.048 46.684 21.772 46.644 21.5 46.644C21.052 46.644 20.66 46.736 20.324 46.92C19.988 47.096 19.704 47.332 19.472 47.628C19.248 47.924 19.076 48.256 18.956 48.624C18.844 48.992 18.788 49.36 18.788 49.728C18.788 50.136 18.856 50.532 18.992 50.916C19.128 51.292 19.316 51.628 19.556 51.924C19.804 52.212 20.096 52.44 20.432 52.608C20.768 52.776 21.136 52.86 21.536 52.86C21.808 52.86 22.092 52.812 22.388 52.716C22.684 52.62 22.956 52.472 23.204 52.272C23.46 52.064 23.66 51.792 23.804 51.456L24.92 52.092C24.744 52.516 24.468 52.876 24.092 53.172C23.724 53.468 23.308 53.692 22.844 53.844C22.388 53.996 21.936 54.072 21.488 54.072C20.888 54.072 20.34 53.948 19.844 53.7C19.348 53.444 18.92 53.108 18.56 52.692C18.2 52.268 17.92 51.796 17.72 51.276C17.52 50.748 17.42 50.216 17.42 49.68ZM28.8034 54.12C28.3074 54.12 27.8634 54.036 27.4714 53.868C27.0794 53.692 26.7394 53.452 26.4514 53.148C26.1714 52.844 25.9554 52.5 25.8034 52.116C25.6514 51.724 25.5754 51.308 25.5754 50.868C25.5754 50.428 25.6514 50.012 25.8034 49.62C25.9554 49.228 26.1714 48.884 26.4514 48.588C26.7394 48.284 27.0794 48.048 27.4714 47.88C27.8714 47.704 28.3154 47.616 28.8034 47.616C29.2914 47.616 29.7314 47.704 30.1234 47.88C30.5234 48.048 30.8634 48.284 31.1434 48.588C31.4314 48.884 31.6514 49.228 31.8034 49.62C31.9554 50.012 32.0314 50.428 32.0314 50.868C32.0314 51.308 31.9554 51.724 31.8034 52.116C31.6514 52.5 31.4314 52.844 31.1434 53.148C30.8634 53.452 30.5234 53.692 30.1234 53.868C29.7314 54.036 29.2914 54.12 28.8034 54.12ZM26.9314 50.88C26.9314 51.28 27.0154 51.64 27.1834 51.96C27.3514 52.28 27.5754 52.532 27.8554 52.716C28.1354 52.9 28.4514 52.992 28.8034 52.992C29.1474 52.992 29.4594 52.9 29.7394 52.716C30.0274 52.524 30.2554 52.268 30.4234 51.948C30.5914 51.62 30.6754 51.26 30.6754 50.868C30.6754 50.468 30.5914 50.108 30.4234 49.788C30.2554 49.468 30.0274 49.216 29.7394 49.032C29.4594 48.84 29.1474 48.744 28.8034 48.744C28.4514 48.744 28.1354 48.84 27.8554 49.032C27.5754 49.224 27.3514 49.48 27.1834 49.8C27.0154 50.112 26.9314 50.472 26.9314 50.88ZM38.8302 54H37.5102V50.484C37.5102 49.9 37.4142 49.472 37.2222 49.2C37.0382 48.928 36.7622 48.792 36.3942 48.792C36.1382 48.792 35.8822 48.856 35.6262 48.984C35.3782 49.112 35.1542 49.288 34.9542 49.512C34.7542 49.728 34.6102 49.98 34.5222 50.268V54H33.2022V47.724H34.4022V48.984C34.5622 48.704 34.7702 48.464 35.0262 48.264C35.2902 48.056 35.5862 47.896 35.9142 47.784C36.2422 47.672 36.5902 47.616 36.9582 47.616C37.3342 47.616 37.6422 47.684 37.8822 47.82C38.1302 47.956 38.3222 48.144 38.4582 48.384C38.6022 48.616 38.6982 48.888 38.7462 49.2C38.8022 49.504 38.8302 49.828 38.8302 50.172V54ZM43.8074 53.676C43.6954 53.732 43.5554 53.792 43.3874 53.856C43.2194 53.92 43.0274 53.976 42.8114 54.024C42.6034 54.072 42.3874 54.096 42.1634 54.096C41.8914 54.096 41.6394 54.048 41.4074 53.952C41.1754 53.856 40.9874 53.704 40.8434 53.496C40.7074 53.28 40.6394 53.004 40.6394 52.668V48.744H39.8114V47.724H40.6394V45.66H41.9594V47.724H43.3274V48.744H41.9594V52.248C41.9754 52.464 42.0434 52.624 42.1634 52.728C42.2914 52.832 42.4474 52.884 42.6314 52.884C42.8154 52.884 42.9914 52.852 43.1594 52.788C43.3274 52.724 43.4514 52.672 43.5314 52.632L43.8074 53.676ZM44.2657 52.164C44.2657 51.764 44.3777 51.416 44.6017 51.12C44.8337 50.816 45.1497 50.584 45.5497 50.424C45.9497 50.256 46.4137 50.172 46.9417 50.172C47.2217 50.172 47.5057 50.192 47.7937 50.232C48.0897 50.272 48.3497 50.336 48.5737 50.424V50.028C48.5737 49.588 48.4417 49.244 48.1777 48.996C47.9137 48.748 47.5337 48.624 47.0377 48.624C46.6857 48.624 46.3537 48.688 46.0417 48.816C45.7297 48.936 45.3977 49.108 45.0457 49.332L44.6017 48.444C45.0177 48.164 45.4337 47.956 45.8497 47.82C46.2737 47.684 46.7177 47.616 47.1817 47.616C48.0217 47.616 48.6817 47.84 49.1617 48.288C49.6497 48.728 49.8937 49.356 49.8937 50.172V52.512C49.8937 52.664 49.9177 52.772 49.9657 52.836C50.0217 52.9 50.1137 52.936 50.2417 52.944V54C50.1217 54.024 50.0137 54.04 49.9177 54.048C49.8217 54.056 49.7417 54.06 49.6777 54.06C49.3977 54.06 49.1857 53.992 49.0417 53.856C48.8977 53.72 48.8137 53.56 48.7897 53.376L48.7537 53.016C48.4817 53.368 48.1337 53.64 47.7097 53.832C47.2857 54.024 46.8577 54.12 46.4257 54.12C46.0097 54.12 45.6377 54.036 45.3097 53.868C44.9817 53.692 44.7257 53.456 44.5417 53.16C44.3577 52.864 44.2657 52.532 44.2657 52.164ZM48.2617 52.548C48.3577 52.444 48.4337 52.34 48.4897 52.236C48.5457 52.132 48.5737 52.04 48.5737 51.96V51.24C48.3497 51.152 48.1137 51.088 47.8657 51.048C47.6177 51 47.3737 50.976 47.1337 50.976C46.6537 50.976 46.2617 51.072 45.9577 51.264C45.6617 51.456 45.5137 51.72 45.5137 52.056C45.5137 52.24 45.5617 52.416 45.6577 52.584C45.7617 52.752 45.9057 52.888 46.0897 52.992C46.2817 53.096 46.5177 53.148 46.7977 53.148C47.0857 53.148 47.3617 53.092 47.6257 52.98C47.8897 52.868 48.1017 52.724 48.2617 52.548ZM54.3391 54.12C53.8511 54.12 53.4071 54.036 53.0071 53.868C52.6151 53.692 52.2751 53.452 51.9871 53.148C51.6991 52.844 51.4751 52.496 51.3151 52.104C51.1631 51.712 51.0871 51.296 51.0871 50.856C51.0871 50.264 51.2191 49.724 51.4831 49.236C51.7551 48.748 52.1311 48.356 52.6111 48.06C53.0991 47.764 53.6751 47.616 54.3391 47.616C54.9791 47.616 55.5351 47.76 56.0071 48.048C56.4871 48.328 56.8391 48.704 57.0631 49.176L55.7791 49.584C55.6351 49.32 55.4311 49.116 55.1671 48.972C54.9111 48.82 54.6271 48.744 54.3151 48.744C53.9631 48.744 53.6431 48.836 53.3551 49.02C53.0751 49.196 52.8511 49.444 52.6831 49.764C52.5231 50.076 52.4431 50.44 52.4431 50.856C52.4431 51.256 52.5271 51.62 52.6951 51.948C52.8631 52.268 53.0871 52.524 53.3671 52.716C53.6551 52.9 53.9751 52.992 54.3271 52.992C54.5431 52.992 54.7511 52.956 54.9511 52.884C55.1591 52.804 55.3391 52.7 55.4911 52.572C55.6431 52.436 55.7511 52.288 55.8151 52.128L57.1111 52.512C56.9751 52.824 56.7711 53.1 56.4991 53.34C56.2351 53.58 55.9191 53.772 55.5511 53.916C55.1911 54.052 54.7871 54.12 54.3391 54.12ZM61.6903 53.676C61.5783 53.732 61.4383 53.792 61.2703 53.856C61.1023 53.92 60.9103 53.976 60.6943 54.024C60.4863 54.072 60.2703 54.096 60.0463 54.096C59.7743 54.096 59.5223 54.048 59.2903 53.952C59.0583 53.856 58.8703 53.704 58.7263 53.496C58.5903 53.28 58.5223 53.004 58.5223 52.668V48.744H57.6943V47.724H58.5223V45.66H59.8423V47.724H61.2103V48.744H59.8423V52.248C59.8583 52.464 59.9263 52.624 60.0463 52.728C60.1743 52.832 60.3303 52.884 60.5143 52.884C60.6983 52.884 60.8743 52.852 61.0423 52.788C61.2103 52.724 61.3343 52.672 61.4143 52.632L61.6903 53.676Z" fill="black"/>
</svg>
