<svg width="80" height="80" viewBox="0 0 80 80" fill="none" xmlns="http://www.w3.org/2000/svg">
<rect width="80" height="80" rx="20" fill="#E1E8EF"/>
<path d="M40.959 17.6601C40.8259 17.5563 40.662 17.5 40.4932 17.5C40.3245 17.5 40.1606 17.5563 40.0275 17.6601L29.25 26.0639L30.1823 27.2429L31.5 26.2154V35.4996C31.5008 35.8972 31.6591 36.2783 31.9402 36.5594C32.2213 36.8405 32.6024 36.9988 33 36.9996H48C48.3976 36.9988 48.7787 36.8405 49.0598 36.5594C49.3409 36.2783 49.4992 35.8972 49.5 35.4996V26.2221L50.8177 27.2496L51.75 26.0706L40.959 17.6601ZM42 35.4996H39V29.4996H42V35.4996ZM43.5 35.4996V29.4996C43.4996 29.1019 43.3414 28.7206 43.0602 28.4394C42.779 28.1582 42.3977 28 42 27.9996H39C38.6023 28 38.221 28.1582 37.9398 28.4394C37.6586 28.7206 37.5004 29.1019 37.5 29.4996V35.4996H33V25.0461L40.5 19.2036L48 25.0536V35.4996H43.5Z" fill="#1A1003" fill-opacity="0.5"/>
<path d="M30.956 45.48V54H29.6V50.244H25.304V54H23.96V45.48H25.304V49.044H29.6V45.48H30.956ZM35.4245 54.12C34.9285 54.12 34.4845 54.036 34.0925 53.868C33.7005 53.692 33.3605 53.452 33.0725 53.148C32.7925 52.844 32.5765 52.5 32.4245 52.116C32.2725 51.724 32.1965 51.308 32.1965 50.868C32.1965 50.428 32.2725 50.012 32.4245 49.62C32.5765 49.228 32.7925 48.884 33.0725 48.588C33.3605 48.284 33.7005 48.048 34.0925 47.88C34.4925 47.704 34.9365 47.616 35.4245 47.616C35.9125 47.616 36.3525 47.704 36.7445 47.88C37.1445 48.048 37.4845 48.284 37.7645 48.588C38.0525 48.884 38.2725 49.228 38.4245 49.62C38.5765 50.012 38.6525 50.428 38.6525 50.868C38.6525 51.308 38.5765 51.724 38.4245 52.116C38.2725 52.5 38.0525 52.844 37.7645 53.148C37.4845 53.452 37.1445 53.692 36.7445 53.868C36.3525 54.036 35.9125 54.12 35.4245 54.12ZM33.5525 50.88C33.5525 51.28 33.6365 51.64 33.8045 51.96C33.9725 52.28 34.1965 52.532 34.4765 52.716C34.7565 52.9 35.0725 52.992 35.4245 52.992C35.7685 52.992 36.0805 52.9 36.3605 52.716C36.6485 52.524 36.8765 52.268 37.0445 51.948C37.2125 51.62 37.2965 51.26 37.2965 50.868C37.2965 50.468 37.2125 50.108 37.0445 49.788C36.8765 49.468 36.6485 49.216 36.3605 49.032C36.0805 48.84 35.7685 48.744 35.4245 48.744C35.0725 48.744 34.7565 48.84 34.4765 49.032C34.1965 49.224 33.9725 49.48 33.8045 49.8C33.6365 50.112 33.5525 50.472 33.5525 50.88ZM49.4233 54H48.1033V50.484C48.1033 49.9 48.0073 49.472 47.8153 49.2C47.6233 48.928 47.3433 48.792 46.9753 48.792C46.6073 48.792 46.2633 48.932 45.9433 49.212C45.6313 49.484 45.4113 49.84 45.2833 50.28V54H43.9633V50.484C43.9633 49.9 43.8673 49.472 43.6753 49.2C43.4833 48.928 43.2073 48.792 42.8473 48.792C42.4793 48.792 42.1353 48.928 41.8153 49.2C41.5033 49.472 41.2793 49.828 41.1433 50.268V54H39.8232V47.724H41.0233V48.984C41.2713 48.544 41.5953 48.208 41.9953 47.976C42.4033 47.736 42.8673 47.616 43.3873 47.616C43.9073 47.616 44.3153 47.752 44.6113 48.024C44.9153 48.296 45.1033 48.636 45.1753 49.044C45.4473 48.58 45.7793 48.228 46.1713 47.988C46.5713 47.74 47.0273 47.616 47.5393 47.616C47.9073 47.616 48.2153 47.684 48.4633 47.82C48.7113 47.956 48.9033 48.144 49.0393 48.384C49.1753 48.616 49.2713 48.888 49.3273 49.2C49.3913 49.504 49.4233 49.828 49.4233 50.172V54ZM53.7883 54.12C53.3003 54.12 52.8563 54.036 52.4563 53.868C52.0643 53.692 51.7243 53.456 51.4363 53.16C51.1483 52.856 50.9243 52.512 50.7643 52.128C50.6123 51.736 50.5363 51.32 50.5363 50.88C50.5363 50.288 50.6723 49.748 50.9443 49.26C51.2163 48.764 51.5963 48.368 52.0843 48.072C52.5723 47.768 53.1443 47.616 53.8003 47.616C54.4563 47.616 55.0203 47.768 55.4923 48.072C55.9723 48.368 56.3443 48.76 56.6083 49.248C56.8723 49.736 57.0043 50.26 57.0043 50.82C57.0043 50.916 57.0003 51.008 56.9923 51.096C56.9843 51.176 56.9763 51.244 56.9683 51.3H51.9403C51.9643 51.668 52.0643 51.992 52.2403 52.272C52.4243 52.544 52.6563 52.76 52.9363 52.92C53.2163 53.072 53.5163 53.148 53.8363 53.148C54.1883 53.148 54.5203 53.06 54.8323 52.884C55.1523 52.708 55.3683 52.476 55.4803 52.188L56.6083 52.512C56.4723 52.816 56.2643 53.092 55.9843 53.34C55.7123 53.58 55.3883 53.772 55.0123 53.916C54.6363 54.052 54.2283 54.12 53.7883 54.12ZM51.9043 50.424H55.6963C55.6723 50.064 55.5683 49.748 55.3843 49.476C55.2083 49.196 54.9803 48.98 54.7003 48.828C54.4283 48.668 54.1243 48.588 53.7883 48.588C53.4603 48.588 53.1563 48.668 52.8763 48.828C52.6043 48.98 52.3803 49.196 52.2043 49.476C52.0283 49.748 51.9283 50.064 51.9043 50.424Z" fill="black"/>
</svg>
