<svg width="80" height="80" viewBox="0 0 80 80" fill="none" xmlns="http://www.w3.org/2000/svg">
<rect width="80" height="80" rx="20" fill="#E1E8EF"/>
<path d="M35.5 15H45.5C46.2956 15 47.0587 15.3161 47.6213 15.8787C48.1839 16.4413 48.5 17.2044 48.5 18V32C48.5 32.7956 48.1839 33.5587 47.6213 34.1213C47.0587 34.6839 46.2956 35 45.5 35H35.5C34.7044 35 33.9413 34.6839 33.3787 34.1213C32.8161 33.5587 32.5 32.7956 32.5 32V18C32.5 17.2044 32.8161 16.4413 33.3787 15.8787C33.9413 15.3161 34.7044 15 35.5 15ZM35.5 17C35.2348 17 34.9804 17.1054 34.7929 17.2929C34.6054 17.4804 34.5 17.7348 34.5 18V32C34.5 32.2652 34.6054 32.5196 34.7929 32.7071C34.9804 32.8946 35.2348 33 35.5 33H45.5C45.7652 33 46.0196 32.8946 46.2071 32.7071C46.3946 32.5196 46.5 32.2652 46.5 32V18C46.5 17.7348 46.3946 17.4804 46.2071 17.2929C46.0196 17.1054 45.7652 17 45.5 17H35.5ZM37.5 18H43.5C43.7652 18 44.0196 18.1054 44.2071 18.2929C44.3946 18.4804 44.5 18.7348 44.5 19C44.5 19.2652 44.3946 19.5196 44.2071 19.7071C44.0196 19.8946 43.7652 20 43.5 20H37.5C37.2348 20 36.9804 19.8946 36.7929 19.7071C36.6054 19.5196 36.5 19.2652 36.5 19C36.5 18.7348 36.6054 18.4804 36.7929 18.2929C36.9804 18.1054 37.2348 18 37.5 18ZM37.5 30H39.5C39.7652 30 40.0196 30.1054 40.2071 30.2929C40.3946 30.4804 40.5 30.7348 40.5 31C40.5 31.2652 40.3946 31.5196 40.2071 31.7071C40.0196 31.8946 39.7652 32 39.5 32H37.5C37.2348 32 36.9804 31.8946 36.7929 31.7071C36.6054 31.5196 36.5 31.2652 36.5 31C36.5 30.7348 36.6054 30.4804 36.7929 30.2929C36.9804 30.1054 37.2348 30 37.5 30ZM37.5 26H43.5C43.7652 26 44.0196 26.1054 44.2071 26.2929C44.3946 26.4804 44.5 26.7348 44.5 27C44.5 27.2652 44.3946 27.5196 44.2071 27.7071C44.0196 27.8946 43.7652 28 43.5 28H37.5C37.2348 28 36.9804 27.8946 36.7929 27.7071C36.6054 27.5196 36.5 27.2652 36.5 27C36.5 26.7348 36.6054 26.4804 36.7929 26.2929C36.9804 26.1054 37.2348 26 37.5 26ZM37.5 22H43.5C43.7652 22 44.0196 22.1054 44.2071 22.2929C44.3946 22.4804 44.5 22.7348 44.5 23C44.5 23.2652 44.3946 23.5196 44.2071 23.7071C44.0196 23.8946 43.7652 24 43.5 24H37.5C37.2348 24 36.9804 23.8946 36.7929 23.7071C36.6054 23.5196 36.5 23.2652 36.5 23C36.5 22.7348 36.6054 22.4804 36.7929 22.2929C36.9804 22.1054 37.2348 22 37.5 22Z" fill="#1A1003" fill-opacity="0.5"/>
<path d="M17.96 54V45.48H21.668C22.052 45.48 22.404 45.56 22.724 45.72C23.044 45.88 23.32 46.092 23.552 46.356C23.792 46.62 23.976 46.916 24.104 47.244C24.24 47.572 24.308 47.908 24.308 48.252C24.308 48.628 24.24 48.988 24.104 49.332C23.968 49.676 23.772 49.972 23.516 50.22C23.268 50.468 22.976 50.648 22.64 50.76L24.644 54H23.132L21.284 51.036H19.304V54H17.96ZM19.304 49.848H21.656C21.904 49.848 22.124 49.776 22.316 49.632C22.508 49.488 22.66 49.296 22.772 49.056C22.884 48.808 22.94 48.54 22.94 48.252C22.94 47.956 22.876 47.692 22.748 47.46C22.62 47.22 22.452 47.028 22.244 46.884C22.044 46.74 21.824 46.668 21.584 46.668H19.304V49.848ZM28.3704 54.12C27.8824 54.12 27.4384 54.036 27.0384 53.868C26.6464 53.692 26.3064 53.456 26.0184 53.16C25.7304 52.856 25.5064 52.512 25.3464 52.128C25.1944 51.736 25.1184 51.32 25.1184 50.88C25.1184 50.288 25.2544 49.748 25.5264 49.26C25.7984 48.764 26.1784 48.368 26.6664 48.072C27.1544 47.768 27.7264 47.616 28.3824 47.616C29.0384 47.616 29.6024 47.768 30.0744 48.072C30.5544 48.368 30.9264 48.76 31.1904 49.248C31.4544 49.736 31.5864 50.26 31.5864 50.82C31.5864 50.916 31.5824 51.008 31.5744 51.096C31.5664 51.176 31.5584 51.244 31.5504 51.3H26.5224C26.5464 51.668 26.6464 51.992 26.8224 52.272C27.0064 52.544 27.2384 52.76 27.5184 52.92C27.7984 53.072 28.0984 53.148 28.4184 53.148C28.7704 53.148 29.1024 53.06 29.4144 52.884C29.7344 52.708 29.9504 52.476 30.0624 52.188L31.1904 52.512C31.0544 52.816 30.8464 53.092 30.5664 53.34C30.2944 53.58 29.9704 53.772 29.5944 53.916C29.2184 54.052 28.8104 54.12 28.3704 54.12ZM26.4864 50.424H30.2784C30.2544 50.064 30.1504 49.748 29.9664 49.476C29.7904 49.196 29.5624 48.98 29.2824 48.828C29.0104 48.668 28.7064 48.588 28.3704 48.588C28.0424 48.588 27.7384 48.668 27.4584 48.828C27.1864 48.98 26.9624 49.196 26.7864 49.476C26.6104 49.748 26.5104 50.064 26.4864 50.424ZM34.8951 54.12C34.3671 54.12 33.8671 54.036 33.3951 53.868C32.9231 53.692 32.5191 53.432 32.1831 53.088L32.6751 52.2C33.0351 52.52 33.3951 52.752 33.7551 52.896C34.1231 53.04 34.4871 53.112 34.8471 53.112C35.2151 53.112 35.5151 53.044 35.7471 52.908C35.9791 52.764 36.0951 52.556 36.0951 52.284C36.0951 52.084 36.0351 51.936 35.9151 51.84C35.7951 51.744 35.6191 51.66 35.3871 51.588C35.1631 51.516 34.8911 51.436 34.5711 51.348C34.1231 51.212 33.7471 51.072 33.4431 50.928C33.1391 50.776 32.9111 50.592 32.7591 50.376C32.6071 50.16 32.5311 49.884 32.5311 49.548C32.5311 49.14 32.6351 48.792 32.8431 48.504C33.0511 48.216 33.3391 47.996 33.7071 47.844C34.0831 47.692 34.5151 47.616 35.0031 47.616C35.4591 47.616 35.8791 47.688 36.2631 47.832C36.6551 47.968 36.9991 48.184 37.2951 48.48L36.7311 49.356C36.4511 49.1 36.1631 48.912 35.8671 48.792C35.5791 48.672 35.2671 48.612 34.9311 48.612C34.7391 48.612 34.5551 48.636 34.3791 48.684C34.2031 48.724 34.0551 48.804 33.9351 48.924C33.8231 49.036 33.7671 49.196 33.7671 49.404C33.7671 49.572 33.8151 49.708 33.9111 49.812C34.0071 49.916 34.1511 50.004 34.3431 50.076C34.5351 50.148 34.7711 50.228 35.0511 50.316C35.5391 50.46 35.9551 50.604 36.2991 50.748C36.6431 50.884 36.9071 51.064 37.0911 51.288C37.2831 51.504 37.3791 51.804 37.3791 52.188C37.3791 52.796 37.1511 53.272 36.6951 53.616C36.2471 53.952 35.6471 54.12 34.8951 54.12ZM38.4976 51.564V47.724H39.8176V51.3C39.8176 51.86 39.9176 52.284 40.1176 52.572C40.3256 52.852 40.6256 52.992 41.0176 52.992C41.2656 52.992 41.5056 52.94 41.7376 52.836C41.9776 52.732 42.1936 52.58 42.3856 52.38C42.5856 52.172 42.7456 51.924 42.8656 51.636V47.724H44.1856V52.512C44.1856 52.664 44.2136 52.772 44.2696 52.836C44.3256 52.9 44.4176 52.936 44.5456 52.944V54C44.4096 54.024 44.2976 54.04 44.2096 54.048C44.1216 54.056 44.0376 54.06 43.9576 54.06C43.7176 54.06 43.5176 53.996 43.3576 53.868C43.1976 53.732 43.1056 53.56 43.0816 53.352L43.0576 52.728C42.7776 53.184 42.4136 53.532 41.9656 53.772C41.5176 54.004 41.0256 54.12 40.4896 54.12C39.8336 54.12 39.3376 53.904 39.0016 53.472C38.6656 53.04 38.4976 52.404 38.4976 51.564ZM55.4701 54H54.1501V50.484C54.1501 49.9 54.0541 49.472 53.8621 49.2C53.6701 48.928 53.3901 48.792 53.0221 48.792C52.6541 48.792 52.3101 48.932 51.9901 49.212C51.6781 49.484 51.4581 49.84 51.3301 50.28V54H50.0101V50.484C50.0101 49.9 49.9141 49.472 49.7221 49.2C49.5301 48.928 49.2541 48.792 48.8941 48.792C48.5261 48.792 48.1821 48.928 47.8621 49.2C47.5501 49.472 47.3261 49.828 47.1901 50.268V54H45.8701V47.724H47.0701V48.984C47.3181 48.544 47.6421 48.208 48.0421 47.976C48.4501 47.736 48.9141 47.616 49.4341 47.616C49.9541 47.616 50.3621 47.752 50.6581 48.024C50.9621 48.296 51.1501 48.636 51.2221 49.044C51.4941 48.58 51.8261 48.228 52.2181 47.988C52.6181 47.74 53.0741 47.616 53.5861 47.616C53.9541 47.616 54.2621 47.684 54.5101 47.82C54.7581 47.956 54.9501 48.144 55.0861 48.384C55.2221 48.616 55.3181 48.888 55.3741 49.2C55.4381 49.504 55.4701 49.828 55.4701 50.172V54ZM59.8352 54.12C59.3472 54.12 58.9032 54.036 58.5032 53.868C58.1112 53.692 57.7712 53.456 57.4832 53.16C57.1952 52.856 56.9712 52.512 56.8112 52.128C56.6592 51.736 56.5832 51.32 56.5832 50.88C56.5832 50.288 56.7192 49.748 56.9912 49.26C57.2632 48.764 57.6432 48.368 58.1312 48.072C58.6192 47.768 59.1912 47.616 59.8472 47.616C60.5032 47.616 61.0672 47.768 61.5392 48.072C62.0192 48.368 62.3912 48.76 62.6552 49.248C62.9192 49.736 63.0512 50.26 63.0512 50.82C63.0512 50.916 63.0472 51.008 63.0392 51.096C63.0312 51.176 63.0232 51.244 63.0152 51.3H57.9872C58.0112 51.668 58.1112 51.992 58.2872 52.272C58.4712 52.544 58.7032 52.76 58.9832 52.92C59.2632 53.072 59.5632 53.148 59.8832 53.148C60.2352 53.148 60.5672 53.06 60.8792 52.884C61.1992 52.708 61.4152 52.476 61.5272 52.188L62.6552 52.512C62.5192 52.816 62.3112 53.092 62.0312 53.34C61.7592 53.58 61.4352 53.772 61.0592 53.916C60.6832 54.052 60.2752 54.12 59.8352 54.12ZM57.9512 50.424H61.7432C61.7192 50.064 61.6152 49.748 61.4312 49.476C61.2552 49.196 61.0272 48.98 60.7472 48.828C60.4752 48.668 60.1712 48.588 59.8352 48.588C59.5072 48.588 59.2032 48.668 58.9232 48.828C58.6512 48.98 58.4272 49.196 58.2512 49.476C58.0752 49.748 57.9752 50.064 57.9512 50.424Z" fill="black"/>
</svg>
