<svg width="80" height="80" viewBox="0 0 80 80" fill="none" xmlns="http://www.w3.org/2000/svg">
<rect width="80" height="80" rx="20" fill="#E1E8EF"/>
<path d="M32.5 35C31.95 35 31.479 34.804 31.087 34.412C30.695 34.02 30.4993 33.5493 30.5 33V22C30.5 21.45 30.696 20.979 31.088 20.587C31.48 20.195 31.9507 19.9993 32.5 20H36.5V18C36.5 17.45 36.696 16.979 37.088 16.587C37.48 16.195 37.9507 15.9993 38.5 16H42.5C43.05 16 43.521 16.196 43.913 16.588C44.305 16.98 44.5007 17.4507 44.5 18V20H48.5C49.05 20 49.521 20.196 49.913 20.588C50.305 20.98 50.5007 21.4507 50.5 22V33C50.5 33.55 50.304 34.021 49.912 34.413C49.52 34.805 49.0493 35.0007 48.5 35H32.5ZM32.5 33H48.5V22H32.5V33ZM38.5 20H42.5V18H38.5V20Z" fill="#1A1003" fill-opacity="0.5"/>
<path d="M28.984 45.516H30.244L31.3 48.408L32.368 45.516H33.628L32.164 49.308L33.436 52.44L36.088 45.48H37.564L34.072 54H32.908L31.312 50.184L29.704 54H28.528L25.048 45.48H26.512L29.176 52.44L30.448 49.308L28.984 45.516ZM40.3893 54.12C39.8933 54.12 39.4493 54.036 39.0573 53.868C38.6653 53.692 38.3253 53.452 38.0373 53.148C37.7573 52.844 37.5413 52.5 37.3893 52.116C37.2373 51.724 37.1613 51.308 37.1613 50.868C37.1613 50.428 37.2373 50.012 37.3893 49.62C37.5413 49.228 37.7573 48.884 38.0373 48.588C38.3253 48.284 38.6653 48.048 39.0573 47.88C39.4573 47.704 39.9013 47.616 40.3893 47.616C40.8773 47.616 41.3173 47.704 41.7093 47.88C42.1093 48.048 42.4493 48.284 42.7293 48.588C43.0173 48.884 43.2373 49.228 43.3893 49.62C43.5413 50.012 43.6173 50.428 43.6173 50.868C43.6173 51.308 43.5413 51.724 43.3893 52.116C43.2373 52.5 43.0173 52.844 42.7293 53.148C42.4493 53.452 42.1093 53.692 41.7093 53.868C41.3173 54.036 40.8773 54.12 40.3893 54.12ZM38.5173 50.88C38.5173 51.28 38.6013 51.64 38.7693 51.96C38.9373 52.28 39.1613 52.532 39.4413 52.716C39.7213 52.9 40.0373 52.992 40.3893 52.992C40.7333 52.992 41.0453 52.9 41.3253 52.716C41.6133 52.524 41.8413 52.268 42.0093 51.948C42.1773 51.62 42.2613 51.26 42.2613 50.868C42.2613 50.468 42.1773 50.108 42.0093 49.788C41.8413 49.468 41.6133 49.216 41.3253 49.032C41.0453 48.84 40.7333 48.744 40.3893 48.744C40.0373 48.744 39.7213 48.84 39.4413 49.032C39.1613 49.224 38.9373 49.48 38.7693 49.8C38.6013 50.112 38.5173 50.472 38.5173 50.88ZM48.3161 48.864C47.8041 48.872 47.3481 48.988 46.9481 49.212C46.5561 49.436 46.2761 49.752 46.1081 50.16V54H44.7881V47.724H46.0121V49.128C46.2281 48.696 46.5121 48.352 46.8641 48.096C47.2161 47.832 47.5881 47.688 47.9801 47.664C48.0601 47.664 48.1241 47.664 48.1721 47.664C48.2281 47.664 48.2761 47.668 48.3161 47.676V48.864ZM53.6444 54L51.6284 51.108L50.5964 52.092V54H49.2764V45.24H50.5964V50.76L53.5004 47.736H54.9164L52.4804 50.364L55.0484 54H53.6444Z" fill="black"/>
</svg>
